<svg xmlns="http://www.w3.org/2000/svg" xmlns:xlink="http://www.w3.org/1999/xlink" width="2048" zoomAndPan="magnify" viewBox="0 0 1536 383.999986" height="512" preserveAspectRatio="xMidYMid meet" version="1.0"><path fill="#000000" d="M 1062.25 225.898438 L 1020.019531 225.898438 L 1020.019531 313.433594 L 1062.25 313.433594 L 1062.25 225.898438 " fill-opacity="1" fill-rule="evenodd"/><path fill="#000000" d="M 1045.980469 196.371094 L 1036.285156 196.371094 L 1036.285156 283.902344 L 1045.980469 283.902344 L 1045.980469 196.371094 " fill-opacity="1" fill-rule="evenodd"/><path fill="#000000" d="M 1070.558594 218.328125 L 1011.710938 218.328125 L 1011.710938 227.820312 L 1070.558594 227.820312 L 1070.558594 218.328125 " fill-opacity="1" fill-rule="evenodd"/><path fill="#000000" d="M 634.246094 168.609375 L 553.105469 168.609375 L 553.105469 321.144531 L 634.246094 321.144531 L 634.246094 168.609375 " fill-opacity="1" fill-rule="evenodd"/><path fill="#000000" d="M 628.003906 158.230469 L 559.347656 158.230469 L 559.347656 256.929688 L 628.003906 256.929688 L 628.003906 158.230469 " fill-opacity="1" fill-rule="evenodd"/><path fill="#000000" d="M 614.738281 147.265625 L 572.609375 147.265625 L 572.609375 250.949219 L 614.738281 250.949219 L 614.738281 147.265625 " fill-opacity="1" fill-rule="evenodd"/><path fill="#000000" d="M 598.269531 120.960938 L 589.082031 120.960938 L 589.082031 216.257812 L 598.269531 216.257812 L 598.269531 120.960938 " fill-opacity="1" fill-rule="evenodd"/><path fill="#000000" d="M 1168.394531 156.21875 L 1085.257812 156.21875 L 1085.257812 347.3125 L 1168.394531 347.3125 L 1168.394531 156.21875 " fill-opacity="1" fill-rule="evenodd"/><path fill="#000000" d="M 1102.375 216.019531 L 1102.375 115.792969 L 1151.277344 133.46875 L 1151.277344 216.019531 L 1102.375 216.019531 " fill-opacity="1" fill-rule="nonzero"/><path fill="#000000" d="M 1139.785156 104.152344 L 1113.867188 104.152344 L 1113.867188 167.792969 L 1139.785156 167.792969 L 1139.785156 104.152344 " fill-opacity="1" fill-rule="evenodd"/><path fill="#000000" d="M 1137.792969 99.820312 L 1115.859375 99.820312 L 1115.859375 141 L 1137.792969 141 L 1137.792969 99.820312 " fill-opacity="1" fill-rule="evenodd"/><path fill="#000000" d="M 1133.554688 95.246094 L 1120.097656 95.246094 L 1120.097656 138.503906 L 1133.554688 138.503906 L 1133.554688 95.246094 " fill-opacity="1" fill-rule="evenodd"/><path fill="#000000" d="M 1128.292969 84.269531 L 1125.359375 84.269531 L 1125.359375 124.03125 L 1128.292969 124.03125 L 1128.292969 84.269531 " fill-opacity="1" fill-rule="evenodd"/><path fill="#000000" d="M 771.902344 337.402344 L 771.902344 193.019531 L 799.160156 174.207031 L 854.175781 174.207031 L 854.175781 337.402344 L 771.902344 337.402344 " fill-opacity="1" fill-rule="nonzero"/><path fill="#000000" d="M 356.804688 180.042969 L 247.441406 180.042969 L 247.441406 352.949219 L 356.804688 352.949219 L 356.804688 180.042969 " fill-opacity="1" fill-rule="evenodd"/><path fill="#000000" d="M 304.902344 134.738281 L 247.441406 134.738281 L 247.441406 307.648438 L 304.902344 307.648438 L 304.902344 134.738281 " fill-opacity="1" fill-rule="evenodd"/><path fill="#000000" d="M 330.851562 164.1875 L 273.394531 164.1875 L 273.394531 337.09375 L 330.851562 337.09375 L 330.851562 164.1875 " fill-opacity="1" fill-rule="evenodd"/><path fill="#000000" d="M 158.90625 155.6875 L 64.828125 155.6875 L 64.828125 329.957031 L 158.90625 329.957031 L 158.90625 155.6875 " fill-opacity="1" fill-rule="evenodd"/><path fill="#000000" d="M 472.074219 216.402344 L 376.074219 216.402344 L 376.074219 350.945312 L 472.074219 350.945312 L 472.074219 216.402344 " fill-opacity="1" fill-rule="evenodd"/><path fill="#000000" d="M 489.355469 267.015625 L 393.355469 267.015625 L 393.355469 366.460938 L 489.355469 366.460938 L 489.355469 267.015625 " fill-opacity="1" fill-rule="evenodd"/><path fill="#000000" d="M 197.070312 254.59375 L 101.070312 254.59375 L 101.070312 328.269531 L 197.070312 328.269531 L 197.070312 254.59375 " fill-opacity="1" fill-rule="evenodd"/><path fill="#000000" d="M 1536 155.6875 L 1440.675781 155.6875 L 1440.675781 330.664062 L 1536 330.664062 L 1536 155.6875 " fill-opacity="1" fill-rule="evenodd"/><path fill="#000000" d="M 1522.554688 128.125 L 1454.117188 128.125 L 1454.117188 337.402344 L 1522.554688 337.402344 L 1522.554688 128.125 " fill-opacity="1" fill-rule="evenodd"/><path fill="#000000" d="M 1513.921875 111.152344 L 1462.753906 111.152344 L 1462.753906 320.429688 L 1513.921875 320.429688 L 1513.921875 111.152344 " fill-opacity="1" fill-rule="evenodd"/><path fill="#000000" d="M 1269.578125 189.445312 L 1223.496094 189.445312 L 1223.496094 337.402344 L 1269.578125 337.402344 L 1269.578125 189.445312 " fill-opacity="1" fill-rule="evenodd"/><path fill="#000000" d="M 1397.140625 185.425781 L 1334.417969 185.425781 L 1334.417969 368.40625 L 1397.140625 368.40625 L 1397.140625 185.425781 " fill-opacity="1" fill-rule="evenodd"/><path fill="#000000" d="M 1325.15625 264.394531 L 1262.429688 264.394531 L 1262.429688 351.910156 L 1325.15625 351.910156 L 1325.15625 264.394531 " fill-opacity="1" fill-rule="evenodd"/><path fill="#000000" d="M 1243.890625 212.265625 L 1147.890625 212.265625 L 1147.890625 346.8125 L 1243.890625 346.8125 L 1243.890625 212.265625 " fill-opacity="1" fill-rule="evenodd"/><path fill="#000000" d="M 1232.371094 201.160156 L 1165.171875 201.160156 L 1165.171875 335.703125 L 1232.371094 335.703125 L 1232.371094 201.160156 " fill-opacity="1" fill-rule="evenodd"/><path fill="#000000" d="M 1257.714844 243.132812 L 1207.796875 243.132812 L 1207.796875 346.96875 L 1257.714844 346.96875 L 1257.714844 243.132812 " fill-opacity="1" fill-rule="evenodd"/><path fill="#000000" d="M 1424.753906 288.46875 L 1357.554688 288.46875 L 1357.554688 352.816406 L 1424.753906 352.816406 L 1424.753906 288.46875 " fill-opacity="1" fill-rule="evenodd"/><path fill="#000000" d="M 1457.394531 287.453125 L 1407.476562 287.453125 L 1407.476562 342.136719 L 1457.394531 342.136719 L 1457.394531 287.453125 " fill-opacity="1" fill-rule="evenodd"/><path fill="#000000" d="M 1536 302.875 L 1452.289062 302.875 L 1452.289062 367.808594 L 1536 367.808594 L 1536 302.875 " fill-opacity="1" fill-rule="evenodd"/><path fill="#000000" d="M 1313.394531 301.046875 L 1246.195312 301.046875 L 1246.195312 365.394531 L 1313.394531 365.394531 L 1313.394531 301.046875 " fill-opacity="1" fill-rule="evenodd"/><path fill="#000000" d="M 1184.371094 284.8125 L 1119.089844 284.8125 L 1119.089844 356.472656 L 1184.371094 356.472656 L 1184.371094 284.8125 " fill-opacity="1" fill-rule="evenodd"/><path fill="#000000" d="M 1075.308594 268.429688 L 1046.507812 268.429688 L 1046.507812 361.160156 L 1075.308594 361.160156 L 1075.308594 268.429688 " fill-opacity="1" fill-rule="evenodd"/><path fill="#000000" d="M 917.871094 293.886719 L 854.175781 293.886719 L 854.175781 372.636719 L 917.871094 372.636719 L 917.871094 293.886719 " fill-opacity="1" fill-rule="evenodd"/><path fill="#000000" d="M 1027.148438 307.902344 L 993.515625 307.902344 L 993.515625 375.347656 L 1027.148438 375.347656 L 1027.148438 307.902344 " fill-opacity="1" fill-rule="evenodd"/><path fill="#000000" d="M 1041.132812 292.550781 L 1018.660156 292.550781 L 1018.660156 359.996094 L 1041.132812 359.996094 L 1041.132812 292.550781 " fill-opacity="1" fill-rule="evenodd"/><path fill="#000000" d="M 470.574219 299.21875 L 405.292969 299.21875 L 405.292969 353.328125 L 470.574219 353.328125 L 470.574219 299.21875 " fill-opacity="1" fill-rule="evenodd"/><path fill="#000000" d="M 437.933594 279.539062 L 389.933594 279.539062 L 389.933594 350.050781 L 437.933594 350.050781 L 437.933594 279.539062 " fill-opacity="1" fill-rule="evenodd"/><path fill="#000000" d="M 287.40625 253.015625 L 268.972656 253.015625 L 268.972656 361.527344 L 287.40625 361.527344 L 287.40625 253.015625 " fill-opacity="1" fill-rule="evenodd"/><path fill="#000000" d="M 832.25 307.902344 L 784.25 307.902344 L 784.25 378.410156 L 832.25 378.410156 L 832.25 307.902344 " fill-opacity="1" fill-rule="evenodd"/><path fill="#000000" d="M 782.542969 279.539062 L 734.542969 279.539062 L 734.542969 350.050781 L 782.542969 350.050781 L 782.542969 279.539062 " fill-opacity="1" fill-rule="evenodd"/><path fill="#000000" d="M 651.746094 285.390625 L 603.746094 285.390625 L 603.746094 355.898438 L 651.746094 355.898438 L 651.746094 285.390625 " fill-opacity="1" fill-rule="evenodd"/><path fill="#000000" d="M 329.722656 337.996094 L 329.722656 198.863281 L 407.605469 223.398438 L 407.605469 337.996094 L 329.722656 337.996094 " fill-opacity="1" fill-rule="nonzero"/><path fill="#000000" d="M 863.101562 271.183594 L 808.25 271.183594 L 808.25 350.316406 L 863.101562 350.316406 L 863.101562 271.183594 " fill-opacity="1" fill-rule="evenodd"/><path fill="#000000" d="M 819.542969 295.945312 L 819.542969 248.269531 L 851.808594 256.675781 L 851.808594 295.945312 L 819.542969 295.945312 " fill-opacity="1" fill-rule="nonzero"/><path fill="#000000" d="M 827.609375 285.132812 L 827.609375 237.453125 L 843.742188 245.863281 L 843.742188 285.132812 L 827.609375 285.132812 " fill-opacity="1" fill-rule="nonzero"/><path fill="#000000" d="M 90.089844 262.816406 L 16.613281 262.816406 L 16.613281 371.96875 L 90.089844 371.96875 L 90.089844 262.816406 " fill-opacity="1" fill-rule="evenodd"/><path fill="#000000" d="M 75.519531 243.832031 L 25.011719 243.832031 L 25.011719 352.984375 L 75.519531 352.984375 L 75.519531 243.832031 " fill-opacity="1" fill-rule="evenodd"/><path fill="#000000" d="M 100.773438 310.582031 L 50.265625 310.582031 L 50.265625 362.675781 L 100.773438 362.675781 L 100.773438 310.582031 " fill-opacity="1" fill-rule="evenodd"/><path fill="#000000" d="M 179.804688 262.683594 L 112.828125 262.683594 L 112.828125 331.496094 L 179.804688 331.496094 L 179.804688 262.683594 " fill-opacity="1" fill-rule="evenodd"/><path fill="#000000" d="M 167.652344 256.277344 L 124.976562 256.277344 L 124.976562 319.867188 L 167.652344 319.867188 L 167.652344 256.277344 " fill-opacity="1" fill-rule="evenodd"/><path fill="#000000" d="M 275.597656 246.136719 L 208.621094 246.136719 L 208.621094 338.140625 L 275.597656 338.140625 L 275.597656 246.136719 " fill-opacity="1" fill-rule="evenodd"/><path fill="#000000" d="M 263.445312 237.570312 L 220.769531 237.570312 L 220.769531 322.59375 L 263.445312 322.59375 L 263.445312 237.570312 " fill-opacity="1" fill-rule="evenodd"/><path fill="#000000" d="M 247.441406 219.804688 L 236.773438 219.804688 L 236.773438 304.828125 L 247.441406 304.828125 L 247.441406 219.804688 " fill-opacity="1" fill-rule="evenodd"/><path fill="#000000" d="M 1536 316.726562 L 0 316.726562 L 0 384 L 1536 384 L 1536 316.726562 " fill-opacity="1" fill-rule="evenodd"/><path fill="#000000" d="M 726.511719 229.980469 L 645.515625 229.980469 L 645.515625 343.386719 L 726.511719 343.386719 L 726.511719 229.980469 " fill-opacity="1" fill-rule="evenodd"/><path fill="#000000" d="M 720.28125 221.675781 L 651.746094 221.675781 L 651.746094 335.082031 L 720.28125 335.082031 L 720.28125 221.675781 " fill-opacity="1" fill-rule="evenodd"/><path fill="#000000" d="M 707.039062 214.554688 L 664.984375 214.554688 L 664.984375 327.964844 L 707.039062 327.964844 L 707.039062 214.554688 " fill-opacity="1" fill-rule="evenodd"/><path fill="#000000" d="M 510.5 336.027344 L 510.5 237.417969 L 533.867188 221.917969 L 555.320312 221.917969 L 581.574219 237.417969 L 581.574219 336.027344 L 510.5 336.027344 " fill-opacity="1" fill-rule="nonzero"/><path fill="#000000" d="M 982.421875 326.273438 L 982.421875 223.921875 L 958.886719 210.585938 L 911.382812 210.585938 L 911.382812 326.273438 L 982.421875 326.273438 " fill-opacity="1" fill-rule="nonzero"/><path fill="#000000" d="M 1376.023438 340.464844 L 1376.023438 238.113281 L 1399.554688 224.777344 L 1447.0625 224.777344 L 1447.0625 340.464844 L 1376.023438 340.464844 " fill-opacity="1" fill-rule="nonzero"/></svg>