<?xml version="1.0" encoding="UTF-8"?>
<svg xmlns="http://www.w3.org/2000/svg" xmlns:xlink="http://www.w3.org/1999/xlink" width="8000" height="2000" viewBox="0 0 8000 2000">

<path fill-rule="evenodd" fill="rgb(71.09375%, 81.25%, 88.671875%)" fill-opacity="1" d="M 5532.550781 1176.558594 L 5312.601562 1176.558594 L 5312.601562 1632.472656 L 5532.550781 1632.472656 L 5532.550781 1176.558594 "/>
<path fill-rule="evenodd" fill="rgb(71.09375%, 81.25%, 88.671875%)" fill-opacity="1" d="M 5447.808594 1022.757812 L 5397.328125 1022.757812 L 5397.328125 1478.667969 L 5447.808594 1478.667969 L 5447.808594 1022.757812 "/>
<path fill-rule="evenodd" fill="rgb(71.09375%, 81.25%, 88.671875%)" fill-opacity="1" d="M 5575.820312 1137.132812 L 5269.328125 1137.132812 L 5269.328125 1186.566406 L 5575.820312 1186.566406 L 5575.820312 1137.132812 "/>
<path fill-rule="evenodd" fill="rgb(71.09375%, 81.25%, 88.671875%)" fill-opacity="1" d="M 3303.359375 878.179688 L 2880.761719 878.179688 L 2880.761719 1672.636719 L 3303.359375 1672.636719 L 3303.359375 878.179688 "/>
<path fill-rule="evenodd" fill="rgb(71.09375%, 81.25%, 88.671875%)" fill-opacity="1" d="M 3270.851562 824.109375 L 2913.261719 824.109375 L 2913.261719 1338.179688 L 3270.851562 1338.179688 L 3270.851562 824.109375 "/>
<path fill-rule="evenodd" fill="rgb(71.09375%, 81.25%, 88.671875%)" fill-opacity="1" d="M 3201.769531 767 L 2982.339844 767 L 2982.339844 1307.023438 L 3201.769531 1307.023438 L 3201.769531 767 "/>
<path fill-rule="evenodd" fill="rgb(71.09375%, 81.25%, 88.671875%)" fill-opacity="1" d="M 3115.980469 630 L 3068.140625 630 L 3068.140625 1126.351562 L 3115.980469 1126.351562 L 3115.980469 630 "/>
<path fill-rule="evenodd" fill="rgb(71.09375%, 81.25%, 88.671875%)" fill-opacity="1" d="M 6085.378906 813.640625 L 5652.378906 813.640625 L 5652.378906 1808.910156 L 6085.378906 1808.910156 L 6085.378906 813.640625 "/>
<path fill-rule="nonzero" fill="rgb(71.09375%, 81.25%, 88.671875%)" fill-opacity="1" d="M 5741.53125 1125.09375 L 5741.53125 603.089844 L 5996.238281 695.140625 L 5996.238281 1125.09375 L 5741.53125 1125.09375 "/>
<path fill-rule="evenodd" fill="rgb(71.09375%, 81.25%, 88.671875%)" fill-opacity="1" d="M 5936.378906 542.460938 L 5801.390625 542.460938 L 5801.390625 873.921875 L 5936.378906 873.921875 L 5936.378906 542.460938 "/>
<path fill-rule="evenodd" fill="rgb(71.09375%, 81.25%, 88.671875%)" fill-opacity="1" d="M 5926 519.898438 L 5811.769531 519.898438 L 5811.769531 734.371094 L 5926 734.371094 L 5926 519.898438 "/>
<path fill-rule="evenodd" fill="rgb(71.09375%, 81.25%, 88.671875%)" fill-opacity="1" d="M 5903.929688 496.070312 L 5833.839844 496.070312 L 5833.839844 721.378906 L 5903.929688 721.378906 L 5903.929688 496.070312 "/>
<path fill-rule="evenodd" fill="rgb(71.09375%, 81.25%, 88.671875%)" fill-opacity="1" d="M 5876.53125 438.910156 L 5861.238281 438.910156 L 5861.238281 646 L 5876.53125 646 L 5876.53125 438.910156 "/>
<path fill-rule="nonzero" fill="rgb(71.09375%, 81.25%, 88.671875%)" fill-opacity="1" d="M 4020.328125 1757.304688 L 4020.328125 1005.300781 L 4162.289062 907.328125 L 4448.839844 907.328125 L 4448.839844 1757.304688 L 4020.328125 1757.304688 "/>
<path fill-rule="evenodd" fill="rgb(71.09375%, 81.25%, 88.671875%)" fill-opacity="1" d="M 1858.351562 937.71875 L 1288.761719 937.71875 L 1288.761719 1838.285156 L 1858.351562 1838.285156 L 1858.351562 937.71875 "/>
<path fill-rule="evenodd" fill="rgb(71.09375%, 81.25%, 88.671875%)" fill-opacity="1" d="M 1588.039062 701.769531 L 1288.761719 701.769531 L 1288.761719 1602.332031 L 1588.039062 1602.332031 L 1588.039062 701.769531 "/>
<path fill-rule="evenodd" fill="rgb(71.09375%, 81.25%, 88.671875%)" fill-opacity="1" d="M 1723.191406 855.140625 L 1423.921875 855.140625 L 1423.921875 1755.703125 L 1723.191406 1755.703125 L 1723.191406 855.140625 "/>
<path fill-rule="evenodd" fill="rgb(71.09375%, 81.25%, 88.671875%)" fill-opacity="1" d="M 827.636719 810.871094 L 337.636719 810.871094 L 337.636719 1718.519531 L 827.636719 1718.519531 L 827.636719 810.871094 "/>
<path fill-rule="evenodd" fill="rgb(71.09375%, 81.25%, 88.671875%)" fill-opacity="1" d="M 2458.71875 1127.085938 L 1958.71875 1127.085938 L 1958.71875 1827.84375 L 2458.71875 1827.84375 L 2458.71875 1127.085938 "/>
<path fill-rule="evenodd" fill="rgb(71.09375%, 81.25%, 88.671875%)" fill-opacity="1" d="M 2548.71875 1390.710938 L 2048.71875 1390.710938 L 2048.71875 1908.660156 L 2548.71875 1908.660156 L 2548.71875 1390.710938 "/>
<path fill-rule="evenodd" fill="rgb(71.09375%, 81.25%, 88.671875%)" fill-opacity="1" d="M 1026.398438 1326 L 526.398438 1326 L 526.398438 1709.746094 L 1026.398438 1709.746094 L 1026.398438 1326 "/>
<path fill-rule="evenodd" fill="rgb(71.09375%, 81.25%, 88.671875%)" fill-opacity="1" d="M 8000 810.871094 L 7503.511719 810.871094 L 7503.511719 1722.203125 L 8000 1722.203125 L 8000 810.871094 "/>
<path fill-rule="evenodd" fill="rgb(71.09375%, 81.25%, 88.671875%)" fill-opacity="1" d="M 7929.980469 667.308594 L 7573.53125 667.308594 L 7573.53125 1757.304688 L 7929.980469 1757.304688 L 7929.980469 667.308594 "/>
<path fill-rule="evenodd" fill="rgb(71.09375%, 81.25%, 88.671875%)" fill-opacity="1" d="M 7885 578.910156 L 7618.519531 578.910156 L 7618.519531 1668.910156 L 7885 1668.910156 L 7885 578.910156 "/>
<path fill-rule="evenodd" fill="rgb(71.09375%, 81.25%, 88.671875%)" fill-opacity="1" d="M 6612.378906 986.699219 L 6372.378906 986.699219 L 6372.378906 1757.304688 L 6612.378906 1757.304688 L 6612.378906 986.699219 "/>
<path fill-rule="evenodd" fill="rgb(71.09375%, 81.25%, 88.671875%)" fill-opacity="1" d="M 7276.78125 965.75 L 6950.089844 965.75 L 6950.089844 1918.78125 L 7276.78125 1918.78125 L 7276.78125 965.75 "/>
<path fill-rule="evenodd" fill="rgb(71.09375%, 81.25%, 88.671875%)" fill-opacity="1" d="M 6901.851562 1377.050781 L 6575.148438 1377.050781 L 6575.148438 1832.875 L 6901.851562 1832.875 L 6901.851562 1377.050781 "/>
<path fill-rule="evenodd" fill="rgb(39.598083%, 57.617188%, 67.1875%)" fill-opacity="1" d="M 6478.601562 1105.554688 L 5978.601562 1105.554688 L 5978.601562 1806.3125 L 6478.601562 1806.3125 L 6478.601562 1105.554688 "/>
<path fill-rule="evenodd" fill="rgb(39.598083%, 57.617188%, 67.1875%)" fill-opacity="1" d="M 6418.601562 1047.699219 L 6068.601562 1047.699219 L 6068.601562 1748.453125 L 6418.601562 1748.453125 L 6418.601562 1047.699219 "/>
<path fill-rule="evenodd" fill="rgb(39.598083%, 57.617188%, 67.1875%)" fill-opacity="1" d="M 6550.601562 1266.324219 L 6290.601562 1266.324219 L 6290.601562 1807.128906 L 6550.601562 1807.128906 L 6550.601562 1266.324219 "/>
<path fill-rule="evenodd" fill="rgb(39.598083%, 57.617188%, 67.1875%)" fill-opacity="1" d="M 7420.601562 1502.449219 L 7070.601562 1502.449219 L 7070.601562 1837.59375 L 7420.601562 1837.59375 L 7420.601562 1502.449219 "/>
<path fill-rule="evenodd" fill="rgb(39.598083%, 57.617188%, 67.1875%)" fill-opacity="1" d="M 7590.601562 1497.144531 L 7330.601562 1497.144531 L 7330.601562 1781.964844 L 7590.601562 1781.964844 L 7590.601562 1497.144531 "/>
<path fill-rule="evenodd" fill="rgb(39.598083%, 57.617188%, 67.1875%)" fill-opacity="1" d="M 8000 1577.46875 L 7564 1577.46875 L 7564 1915.660156 L 8000 1915.660156 L 8000 1577.46875 "/>
<path fill-rule="evenodd" fill="rgb(39.598083%, 57.617188%, 67.1875%)" fill-opacity="1" d="M 6840.601562 1567.957031 L 6490.601562 1567.957031 L 6490.601562 1903.101562 L 6840.601562 1903.101562 L 6840.601562 1567.957031 "/>
<path fill-rule="evenodd" fill="rgb(39.598083%, 57.617188%, 67.1875%)" fill-opacity="1" d="M 6168.601562 1483.40625 L 5828.601562 1483.40625 L 5828.601562 1856.636719 L 6168.601562 1856.636719 L 6168.601562 1483.40625 "/>
<path fill-rule="evenodd" fill="rgb(39.598083%, 57.617188%, 67.1875%)" fill-opacity="1" d="M 5600.570312 1398.074219 L 5450.570312 1398.074219 L 5450.570312 1881.035156 L 5600.570312 1881.035156 L 5600.570312 1398.074219 "/>
<path fill-rule="evenodd" fill="rgb(39.598083%, 57.617188%, 67.1875%)" fill-opacity="1" d="M 4780.570312 1530.65625 L 4448.839844 1530.65625 L 4448.839844 1940.820312 L 4780.570312 1940.820312 L 4780.570312 1530.65625 "/>
<path fill-rule="evenodd" fill="rgb(39.598083%, 57.617188%, 67.1875%)" fill-opacity="1" d="M 5349.730469 1603.648438 L 5174.570312 1603.648438 L 5174.570312 1954.941406 L 5349.730469 1954.941406 L 5349.730469 1603.648438 "/>
<path fill-rule="evenodd" fill="rgb(39.598083%, 57.617188%, 67.1875%)" fill-opacity="1" d="M 5422.570312 1523.695312 L 5305.53125 1523.695312 L 5305.53125 1874.988281 L 5422.570312 1874.988281 L 5422.570312 1523.695312 "/>
<path fill-rule="evenodd" fill="rgb(39.598083%, 57.617188%, 67.1875%)" fill-opacity="1" d="M 2450.898438 1558.429688 L 2110.898438 1558.429688 L 2110.898438 1840.257812 L 2450.898438 1840.257812 L 2450.898438 1558.429688 "/>
<path fill-rule="evenodd" fill="rgb(39.598083%, 57.617188%, 67.1875%)" fill-opacity="1" d="M 2280.898438 1455.933594 L 2030.898438 1455.933594 L 2030.898438 1823.175781 L 2280.898438 1823.175781 L 2280.898438 1455.933594 "/>
<path fill-rule="evenodd" fill="rgb(39.598083%, 57.617188%, 67.1875%)" fill-opacity="1" d="M 1496.898438 1317.789062 L 1400.898438 1317.789062 L 1400.898438 1882.964844 L 1496.898438 1882.964844 L 1496.898438 1317.789062 "/>
<path fill-rule="evenodd" fill="rgb(39.598083%, 57.617188%, 67.1875%)" fill-opacity="1" d="M 4334.640625 1603.648438 L 4084.640625 1603.648438 L 4084.640625 1970.890625 L 4334.640625 1970.890625 L 4334.640625 1603.648438 "/>
<path fill-rule="evenodd" fill="rgb(39.598083%, 57.617188%, 67.1875%)" fill-opacity="1" d="M 4075.738281 1455.933594 L 3825.738281 1455.933594 L 3825.738281 1823.175781 L 4075.738281 1823.175781 L 4075.738281 1455.933594 "/>
<path fill-rule="evenodd" fill="rgb(39.598083%, 57.617188%, 67.1875%)" fill-opacity="1" d="M 3394.511719 1486.402344 L 3144.511719 1486.402344 L 3144.511719 1853.644531 L 3394.511719 1853.644531 L 3394.511719 1486.402344 "/>
<path fill-rule="nonzero" fill="rgb(39.598083%, 57.617188%, 67.1875%)" fill-opacity="1" d="M 1717.308594 1760.40625 L 1717.308594 1035.746094 L 2122.941406 1163.535156 L 2122.941406 1760.40625 L 1717.308594 1760.40625 "/>
<path fill-rule="evenodd" fill="rgb(39.598083%, 57.617188%, 67.1875%)" fill-opacity="1" d="M 4495.320312 1412.40625 L 4209.640625 1412.40625 L 4209.640625 1824.570312 L 4495.320312 1824.570312 L 4495.320312 1412.40625 "/>
<path fill-rule="nonzero" fill="rgb(39.598083%, 57.617188%, 67.1875%)" fill-opacity="1" d="M 4268.449219 1541.386719 L 4268.449219 1293.0625 L 4436.5 1336.855469 L 4436.5 1541.386719 L 4268.449219 1541.386719 "/>
<path fill-rule="nonzero" fill="rgb(39.598083%, 57.617188%, 67.1875%)" fill-opacity="1" d="M 4310.46875 1485.0625 L 4310.46875 1236.742188 L 4394.488281 1280.53125 L 4394.488281 1485.0625 L 4310.46875 1485.0625 "/>
<path fill-rule="evenodd" fill="rgb(39.598083%, 57.617188%, 67.1875%)" fill-opacity="1" d="M 469.214844 1368.835938 L 86.523438 1368.835938 L 86.523438 1937.328125 L 469.214844 1937.328125 L 469.214844 1368.835938 "/>
<path fill-rule="evenodd" fill="rgb(39.598083%, 57.617188%, 67.1875%)" fill-opacity="1" d="M 393.332031 1269.96875 L 130.273438 1269.96875 L 130.273438 1838.460938 L 393.332031 1838.460938 L 393.332031 1269.96875 "/>
<path fill-rule="evenodd" fill="rgb(39.598083%, 57.617188%, 67.1875%)" fill-opacity="1" d="M 524.863281 1617.609375 L 261.804688 1617.609375 L 261.804688 1888.945312 L 524.863281 1888.945312 L 524.863281 1617.609375 "/>
<path fill-rule="evenodd" fill="rgb(39.598083%, 57.617188%, 67.1875%)" fill-opacity="1" d="M 936.476562 1368.140625 L 587.636719 1368.140625 L 587.636719 1726.539062 L 936.476562 1726.539062 L 936.476562 1368.140625 "/>
<path fill-rule="evenodd" fill="rgb(39.598083%, 57.617188%, 67.1875%)" fill-opacity="1" d="M 873.199219 1334.773438 L 650.914062 1334.773438 L 650.914062 1665.980469 L 873.199219 1665.980469 L 873.199219 1334.773438 "/>
<path fill-rule="evenodd" fill="rgb(39.598083%, 57.617188%, 67.1875%)" fill-opacity="1" d="M 1435.398438 1281.960938 L 1086.558594 1281.960938 L 1086.558594 1761.144531 L 1435.398438 1761.144531 L 1435.398438 1281.960938 "/>
<path fill-rule="evenodd" fill="rgb(39.598083%, 57.617188%, 67.1875%)" fill-opacity="1" d="M 1372.121094 1237.347656 L 1149.839844 1237.347656 L 1149.839844 1680.179688 L 1372.121094 1680.179688 L 1372.121094 1237.347656 "/>
<path fill-rule="evenodd" fill="rgb(39.598083%, 57.617188%, 67.1875%)" fill-opacity="1" d="M 1288.761719 1144.8125 L 1233.191406 1144.8125 L 1233.191406 1587.644531 L 1288.761719 1587.644531 L 1288.761719 1144.8125 "/>
<path fill-rule="evenodd" fill="rgb(39.598083%, 57.617188%, 67.1875%)" fill-opacity="1" d="M 8000 1649.621094 L 0 1649.621094 L 0 2000 L 8000 2000 L 8000 1649.621094 "/>
<path fill-rule="evenodd" fill="rgb(39.598083%, 57.617188%, 67.1875%)" fill-opacity="1" d="M 3783.910156 1197.808594 L 3362.058594 1197.808594 L 3362.058594 1788.480469 L 3783.910156 1788.480469 L 3783.910156 1197.808594 "/>
<path fill-rule="evenodd" fill="rgb(39.598083%, 57.617188%, 67.1875%)" fill-opacity="1" d="M 3751.460938 1154.554688 L 3394.511719 1154.554688 L 3394.511719 1745.222656 L 3751.460938 1745.222656 L 3751.460938 1154.554688 "/>
<path fill-rule="evenodd" fill="rgb(39.598083%, 57.617188%, 67.1875%)" fill-opacity="1" d="M 3682.5 1117.480469 L 3463.460938 1117.480469 L 3463.460938 1708.148438 L 3682.5 1708.148438 L 3682.5 1117.480469 "/>
<path fill-rule="nonzero" fill="rgb(39.598083%, 57.617188%, 67.1875%)" fill-opacity="1" d="M 2658.859375 1750.136719 L 2658.859375 1236.546875 L 2780.558594 1155.820312 L 2892.289062 1155.820312 L 3029.039062 1236.546875 L 3029.039062 1750.136719 L 2658.859375 1750.136719 "/>
<path fill-rule="nonzero" fill="rgb(39.598083%, 57.617188%, 67.1875%)" fill-opacity="1" d="M 5116.78125 1699.34375 L 5116.78125 1166.257812 L 4994.210938 1096.808594 L 4746.78125 1096.808594 L 4746.78125 1699.34375 L 5116.78125 1699.34375 "/>
<path fill-rule="nonzero" fill="rgb(39.598083%, 57.617188%, 67.1875%)" fill-opacity="1" d="M 7166.78125 1773.25 L 7166.78125 1240.164062 L 7289.351562 1170.71875 L 7536.78125 1170.71875 L 7536.78125 1773.25 L 7166.78125 1773.25 "/>
</svg>
